<mxfile host="Electron" modified="2024-05-20T16:54:16.310Z" agent="Mozilla/5.0 (X11; Linux x86_64) AppleWebKit/537.36 (KHTML, like Gecko) draw.io/22.1.16 Chrome/120.0.6099.109 Electron/28.1.0 Safari/537.36" etag="9URTVBY7qmBEh-sBn4zz" version="22.1.16" type="device" pages="3">
  <diagram name="pre-process and indexing" id="XHt6HuzonjFaK2CfurRB">
    <mxGraphModel dx="880" dy="1657" grid="1" gridSize="10" guides="1" tooltips="1" connect="1" arrows="1" fold="1" page="1" pageScale="1" pageWidth="850" pageHeight="1100" math="0" shadow="0">
      <root>
        <mxCell id="0" />
        <mxCell id="1" parent="0" />
        <mxCell id="hun0dzPTj4XmuTt-Vh2s-44" style="edgeStyle=orthogonalEdgeStyle;rounded=0;orthogonalLoop=1;jettySize=auto;html=1;" parent="1" source="hun0dzPTj4XmuTt-Vh2s-2" target="hun0dzPTj4XmuTt-Vh2s-30" edge="1">
          <mxGeometry relative="1" as="geometry" />
        </mxCell>
        <mxCell id="hun0dzPTj4XmuTt-Vh2s-2" value="Pre-process documents" style="rounded=1;whiteSpace=wrap;html=1;absoluteArcSize=1;arcSize=14;strokeWidth=2;align=center;verticalAlign=top;fontStyle=1;fontSize=18;" parent="1" vertex="1">
          <mxGeometry x="220" y="-1000" width="410" height="270" as="geometry" />
        </mxCell>
        <mxCell id="hun0dzPTj4XmuTt-Vh2s-21" style="edgeStyle=orthogonalEdgeStyle;rounded=0;orthogonalLoop=1;jettySize=auto;html=1;entryX=0.5;entryY=0;entryDx=0;entryDy=0;" parent="1" source="hun0dzPTj4XmuTt-Vh2s-1" target="hun0dzPTj4XmuTt-Vh2s-2" edge="1">
          <mxGeometry relative="1" as="geometry" />
        </mxCell>
        <mxCell id="hun0dzPTj4XmuTt-Vh2s-1" value="Start" style="strokeWidth=2;html=1;shape=mxgraph.flowchart.start_1;whiteSpace=wrap;" parent="1" vertex="1">
          <mxGeometry x="375" y="-1090" width="100" height="60" as="geometry" />
        </mxCell>
        <mxCell id="hun0dzPTj4XmuTt-Vh2s-10" style="edgeStyle=orthogonalEdgeStyle;rounded=0;orthogonalLoop=1;jettySize=auto;html=1;" parent="1" source="hun0dzPTj4XmuTt-Vh2s-6" target="hun0dzPTj4XmuTt-Vh2s-9" edge="1">
          <mxGeometry relative="1" as="geometry" />
        </mxCell>
        <mxCell id="hun0dzPTj4XmuTt-Vh2s-6" value="read documents" style="rounded=1;whiteSpace=wrap;html=1;absoluteArcSize=1;arcSize=14;strokeWidth=2;" parent="1" vertex="1">
          <mxGeometry x="234" y="-950" width="105" height="40" as="geometry" />
        </mxCell>
        <mxCell id="hun0dzPTj4XmuTt-Vh2s-12" style="edgeStyle=orthogonalEdgeStyle;rounded=0;orthogonalLoop=1;jettySize=auto;html=1;" parent="1" source="hun0dzPTj4XmuTt-Vh2s-9" target="hun0dzPTj4XmuTt-Vh2s-11" edge="1">
          <mxGeometry relative="1" as="geometry" />
        </mxCell>
        <mxCell id="hun0dzPTj4XmuTt-Vh2s-9" value="lower case" style="rounded=1;whiteSpace=wrap;html=1;absoluteArcSize=1;arcSize=14;strokeWidth=2;" parent="1" vertex="1">
          <mxGeometry x="234" y="-880" width="105" height="40" as="geometry" />
        </mxCell>
        <mxCell id="hun0dzPTj4XmuTt-Vh2s-26" style="edgeStyle=orthogonalEdgeStyle;rounded=0;orthogonalLoop=1;jettySize=auto;html=1;" parent="1" source="hun0dzPTj4XmuTt-Vh2s-11" target="hun0dzPTj4XmuTt-Vh2s-13" edge="1">
          <mxGeometry relative="1" as="geometry" />
        </mxCell>
        <mxCell id="hun0dzPTj4XmuTt-Vh2s-11" value="tokenizing" style="rounded=1;whiteSpace=wrap;html=1;absoluteArcSize=1;arcSize=14;strokeWidth=2;" parent="1" vertex="1">
          <mxGeometry x="380" y="-880" width="105" height="40" as="geometry" />
        </mxCell>
        <mxCell id="hun0dzPTj4XmuTt-Vh2s-16" value="" style="edgeStyle=orthogonalEdgeStyle;rounded=0;orthogonalLoop=1;jettySize=auto;html=1;" parent="1" source="hun0dzPTj4XmuTt-Vh2s-13" target="hun0dzPTj4XmuTt-Vh2s-15" edge="1">
          <mxGeometry relative="1" as="geometry" />
        </mxCell>
        <mxCell id="hun0dzPTj4XmuTt-Vh2s-13" value="removing symbols" style="rounded=1;whiteSpace=wrap;html=1;absoluteArcSize=1;arcSize=14;strokeWidth=2;" parent="1" vertex="1">
          <mxGeometry x="509" y="-880" width="105" height="40" as="geometry" />
        </mxCell>
        <mxCell id="hun0dzPTj4XmuTt-Vh2s-25" style="edgeStyle=orthogonalEdgeStyle;rounded=0;orthogonalLoop=1;jettySize=auto;html=1;" parent="1" source="hun0dzPTj4XmuTt-Vh2s-15" target="hun0dzPTj4XmuTt-Vh2s-23" edge="1">
          <mxGeometry relative="1" as="geometry" />
        </mxCell>
        <mxCell id="hun0dzPTj4XmuTt-Vh2s-15" value="stemming" style="rounded=1;whiteSpace=wrap;html=1;absoluteArcSize=1;arcSize=14;strokeWidth=2;" parent="1" vertex="1">
          <mxGeometry x="509" y="-800" width="105" height="40" as="geometry" />
        </mxCell>
        <mxCell id="hun0dzPTj4XmuTt-Vh2s-29" style="edgeStyle=orthogonalEdgeStyle;rounded=0;orthogonalLoop=1;jettySize=auto;html=1;" parent="1" source="hun0dzPTj4XmuTt-Vh2s-22" target="hun0dzPTj4XmuTt-Vh2s-6" edge="1">
          <mxGeometry relative="1" as="geometry" />
        </mxCell>
        <mxCell id="hun0dzPTj4XmuTt-Vh2s-22" value="take collection path" style="strokeWidth=2;html=1;shape=mxgraph.flowchart.start_1;whiteSpace=wrap;" parent="1" vertex="1">
          <mxGeometry x="410" y="-960" width="201.5" height="60" as="geometry" />
        </mxCell>
        <mxCell id="hun0dzPTj4XmuTt-Vh2s-23" value="Return list of&lt;br&gt;(token, docId, tokPos)" style="strokeWidth=2;html=1;shape=mxgraph.flowchart.start_1;whiteSpace=wrap;" parent="1" vertex="1">
          <mxGeometry x="234" y="-810" width="156" height="60" as="geometry" />
        </mxCell>
        <mxCell id="hun0dzPTj4XmuTt-Vh2s-59" style="edgeStyle=orthogonalEdgeStyle;rounded=0;orthogonalLoop=1;jettySize=auto;html=1;entryX=0.5;entryY=0;entryDx=0;entryDy=0;" parent="1" source="hun0dzPTj4XmuTt-Vh2s-30" target="hun0dzPTj4XmuTt-Vh2s-45" edge="1">
          <mxGeometry relative="1" as="geometry" />
        </mxCell>
        <mxCell id="hun0dzPTj4XmuTt-Vh2s-30" value="Indexing" style="rounded=1;whiteSpace=wrap;html=1;absoluteArcSize=1;arcSize=14;strokeWidth=2;align=center;verticalAlign=top;fontStyle=1;fontSize=18;" parent="1" vertex="1">
          <mxGeometry x="220" y="-660" width="410" height="270" as="geometry" />
        </mxCell>
        <mxCell id="hun0dzPTj4XmuTt-Vh2s-31" style="edgeStyle=orthogonalEdgeStyle;rounded=0;orthogonalLoop=1;jettySize=auto;html=1;" parent="1" source="hun0dzPTj4XmuTt-Vh2s-32" target="hun0dzPTj4XmuTt-Vh2s-34" edge="1">
          <mxGeometry relative="1" as="geometry" />
        </mxCell>
        <mxCell id="hun0dzPTj4XmuTt-Vh2s-32" value="append in dict" style="rounded=1;whiteSpace=wrap;html=1;absoluteArcSize=1;arcSize=14;strokeWidth=2;" parent="1" vertex="1">
          <mxGeometry x="234" y="-610" width="105" height="40" as="geometry" />
        </mxCell>
        <mxCell id="hun0dzPTj4XmuTt-Vh2s-33" style="edgeStyle=orthogonalEdgeStyle;rounded=0;orthogonalLoop=1;jettySize=auto;html=1;" parent="1" source="hun0dzPTj4XmuTt-Vh2s-34" target="hun0dzPTj4XmuTt-Vh2s-36" edge="1">
          <mxGeometry relative="1" as="geometry" />
        </mxCell>
        <mxCell id="hun0dzPTj4XmuTt-Vh2s-34" value="add tok and docID to posting" style="rounded=1;whiteSpace=wrap;html=1;absoluteArcSize=1;arcSize=14;strokeWidth=2;" parent="1" vertex="1">
          <mxGeometry x="234" y="-540" width="105" height="40" as="geometry" />
        </mxCell>
        <mxCell id="hun0dzPTj4XmuTt-Vh2s-35" style="edgeStyle=orthogonalEdgeStyle;rounded=0;orthogonalLoop=1;jettySize=auto;html=1;" parent="1" source="hun0dzPTj4XmuTt-Vh2s-36" target="hun0dzPTj4XmuTt-Vh2s-38" edge="1">
          <mxGeometry relative="1" as="geometry" />
        </mxCell>
        <mxCell id="hun0dzPTj4XmuTt-Vh2s-36" value="tokenizing" style="rounded=1;whiteSpace=wrap;html=1;absoluteArcSize=1;arcSize=14;strokeWidth=2;" parent="1" vertex="1">
          <mxGeometry x="380" y="-540" width="105" height="40" as="geometry" />
        </mxCell>
        <mxCell id="hun0dzPTj4XmuTt-Vh2s-37" value="" style="edgeStyle=orthogonalEdgeStyle;rounded=0;orthogonalLoop=1;jettySize=auto;html=1;" parent="1" source="hun0dzPTj4XmuTt-Vh2s-38" target="hun0dzPTj4XmuTt-Vh2s-40" edge="1">
          <mxGeometry relative="1" as="geometry" />
        </mxCell>
        <mxCell id="hun0dzPTj4XmuTt-Vh2s-38" value="removing symbols" style="rounded=1;whiteSpace=wrap;html=1;absoluteArcSize=1;arcSize=14;strokeWidth=2;" parent="1" vertex="1">
          <mxGeometry x="509" y="-540" width="105" height="40" as="geometry" />
        </mxCell>
        <mxCell id="hun0dzPTj4XmuTt-Vh2s-39" style="edgeStyle=orthogonalEdgeStyle;rounded=0;orthogonalLoop=1;jettySize=auto;html=1;" parent="1" source="hun0dzPTj4XmuTt-Vh2s-40" target="hun0dzPTj4XmuTt-Vh2s-43" edge="1">
          <mxGeometry relative="1" as="geometry" />
        </mxCell>
        <mxCell id="hun0dzPTj4XmuTt-Vh2s-40" value="stemming" style="rounded=1;whiteSpace=wrap;html=1;absoluteArcSize=1;arcSize=14;strokeWidth=2;" parent="1" vertex="1">
          <mxGeometry x="509" y="-460" width="105" height="40" as="geometry" />
        </mxCell>
        <mxCell id="hun0dzPTj4XmuTt-Vh2s-41" style="edgeStyle=orthogonalEdgeStyle;rounded=0;orthogonalLoop=1;jettySize=auto;html=1;" parent="1" source="hun0dzPTj4XmuTt-Vh2s-42" target="hun0dzPTj4XmuTt-Vh2s-32" edge="1">
          <mxGeometry relative="1" as="geometry" />
        </mxCell>
        <mxCell id="hun0dzPTj4XmuTt-Vh2s-42" value="take token list with their doc and pos" style="strokeWidth=2;html=1;shape=mxgraph.flowchart.start_1;whiteSpace=wrap;" parent="1" vertex="1">
          <mxGeometry x="410" y="-620" width="201.5" height="60" as="geometry" />
        </mxCell>
        <mxCell id="hun0dzPTj4XmuTt-Vh2s-43" value="Return list of&lt;br&gt;(token, docId, tokPos)" style="strokeWidth=2;html=1;shape=mxgraph.flowchart.start_1;whiteSpace=wrap;" parent="1" vertex="1">
          <mxGeometry x="234" y="-470" width="156" height="60" as="geometry" />
        </mxCell>
        <mxCell id="hun0dzPTj4XmuTt-Vh2s-45" value="proess document" style="rounded=1;whiteSpace=wrap;html=1;absoluteArcSize=1;arcSize=14;strokeWidth=2;align=center;verticalAlign=top;fontStyle=1;fontSize=18;" parent="1" vertex="1">
          <mxGeometry x="220" y="-300" width="410" height="270" as="geometry" />
        </mxCell>
        <mxCell id="hun0dzPTj4XmuTt-Vh2s-46" style="edgeStyle=orthogonalEdgeStyle;rounded=0;orthogonalLoop=1;jettySize=auto;html=1;" parent="1" source="hun0dzPTj4XmuTt-Vh2s-47" target="hun0dzPTj4XmuTt-Vh2s-49" edge="1">
          <mxGeometry relative="1" as="geometry" />
        </mxCell>
        <mxCell id="hun0dzPTj4XmuTt-Vh2s-47" value="append in dict" style="rounded=1;whiteSpace=wrap;html=1;absoluteArcSize=1;arcSize=14;strokeWidth=2;" parent="1" vertex="1">
          <mxGeometry x="234" y="-250" width="105" height="40" as="geometry" />
        </mxCell>
        <mxCell id="hun0dzPTj4XmuTt-Vh2s-48" style="edgeStyle=orthogonalEdgeStyle;rounded=0;orthogonalLoop=1;jettySize=auto;html=1;" parent="1" source="hun0dzPTj4XmuTt-Vh2s-49" target="hun0dzPTj4XmuTt-Vh2s-51" edge="1">
          <mxGeometry relative="1" as="geometry" />
        </mxCell>
        <mxCell id="hun0dzPTj4XmuTt-Vh2s-49" value="add tok and docID to posting" style="rounded=1;whiteSpace=wrap;html=1;absoluteArcSize=1;arcSize=14;strokeWidth=2;" parent="1" vertex="1">
          <mxGeometry x="234" y="-180" width="105" height="40" as="geometry" />
        </mxCell>
        <mxCell id="hun0dzPTj4XmuTt-Vh2s-50" style="edgeStyle=orthogonalEdgeStyle;rounded=0;orthogonalLoop=1;jettySize=auto;html=1;" parent="1" source="hun0dzPTj4XmuTt-Vh2s-51" target="hun0dzPTj4XmuTt-Vh2s-53" edge="1">
          <mxGeometry relative="1" as="geometry" />
        </mxCell>
        <mxCell id="hun0dzPTj4XmuTt-Vh2s-51" value="tokenizing" style="rounded=1;whiteSpace=wrap;html=1;absoluteArcSize=1;arcSize=14;strokeWidth=2;" parent="1" vertex="1">
          <mxGeometry x="380" y="-180" width="105" height="40" as="geometry" />
        </mxCell>
        <mxCell id="hun0dzPTj4XmuTt-Vh2s-52" value="" style="edgeStyle=orthogonalEdgeStyle;rounded=0;orthogonalLoop=1;jettySize=auto;html=1;" parent="1" source="hun0dzPTj4XmuTt-Vh2s-53" target="hun0dzPTj4XmuTt-Vh2s-55" edge="1">
          <mxGeometry relative="1" as="geometry" />
        </mxCell>
        <mxCell id="hun0dzPTj4XmuTt-Vh2s-53" value="removing symbols" style="rounded=1;whiteSpace=wrap;html=1;absoluteArcSize=1;arcSize=14;strokeWidth=2;" parent="1" vertex="1">
          <mxGeometry x="509" y="-180" width="105" height="40" as="geometry" />
        </mxCell>
        <mxCell id="hun0dzPTj4XmuTt-Vh2s-54" style="edgeStyle=orthogonalEdgeStyle;rounded=0;orthogonalLoop=1;jettySize=auto;html=1;" parent="1" source="hun0dzPTj4XmuTt-Vh2s-55" target="hun0dzPTj4XmuTt-Vh2s-58" edge="1">
          <mxGeometry relative="1" as="geometry" />
        </mxCell>
        <mxCell id="hun0dzPTj4XmuTt-Vh2s-55" value="stemming" style="rounded=1;whiteSpace=wrap;html=1;absoluteArcSize=1;arcSize=14;strokeWidth=2;" parent="1" vertex="1">
          <mxGeometry x="509" y="-100" width="105" height="40" as="geometry" />
        </mxCell>
        <mxCell id="hun0dzPTj4XmuTt-Vh2s-56" style="edgeStyle=orthogonalEdgeStyle;rounded=0;orthogonalLoop=1;jettySize=auto;html=1;" parent="1" source="hun0dzPTj4XmuTt-Vh2s-57" target="hun0dzPTj4XmuTt-Vh2s-47" edge="1">
          <mxGeometry relative="1" as="geometry" />
        </mxCell>
        <mxCell id="hun0dzPTj4XmuTt-Vh2s-57" value="take token list with their doc and pos" style="strokeWidth=2;html=1;shape=mxgraph.flowchart.start_1;whiteSpace=wrap;" parent="1" vertex="1">
          <mxGeometry x="410" y="-260" width="201.5" height="60" as="geometry" />
        </mxCell>
        <mxCell id="hun0dzPTj4XmuTt-Vh2s-58" value="Return list of&lt;br&gt;(token, docId, tokPos)" style="strokeWidth=2;html=1;shape=mxgraph.flowchart.start_1;whiteSpace=wrap;" parent="1" vertex="1">
          <mxGeometry x="234" y="-110" width="156" height="60" as="geometry" />
        </mxCell>
      </root>
    </mxGraphModel>
  </diagram>
  <diagram id="6Qc9yzMz3X6dKoKA0TK8" name="query resolving">
    <mxGraphModel dx="880" dy="1657" grid="1" gridSize="10" guides="1" tooltips="1" connect="1" arrows="1" fold="1" page="1" pageScale="1" pageWidth="850" pageHeight="1100" math="0" shadow="0">
      <root>
        <mxCell id="0" />
        <mxCell id="1" parent="0" />
        <mxCell id="PDiiPKrnj8VNQ2zXjHpO-53" value="" style="edgeStyle=orthogonalEdgeStyle;rounded=0;orthogonalLoop=1;jettySize=auto;html=1;" edge="1" parent="1" source="PDiiPKrnj8VNQ2zXjHpO-4" target="PDiiPKrnj8VNQ2zXjHpO-52">
          <mxGeometry relative="1" as="geometry" />
        </mxCell>
        <mxCell id="PDiiPKrnj8VNQ2zXjHpO-4" value="Start" style="strokeWidth=2;html=1;shape=mxgraph.flowchart.start_1;whiteSpace=wrap;" vertex="1" parent="1">
          <mxGeometry x="375" y="-1090" width="100" height="60" as="geometry" />
        </mxCell>
        <mxCell id="PDiiPKrnj8VNQ2zXjHpO-47" value="make equivalent query based on that token" style="rounded=1;whiteSpace=wrap;html=1;" vertex="1" parent="1">
          <mxGeometry x="550" y="-990" width="120" height="60" as="geometry" />
        </mxCell>
        <mxCell id="PDiiPKrnj8VNQ2zXjHpO-54" value="Yes" style="edgeStyle=orthogonalEdgeStyle;rounded=0;orthogonalLoop=1;jettySize=auto;html=1;" edge="1" parent="1" source="PDiiPKrnj8VNQ2zXjHpO-52" target="PDiiPKrnj8VNQ2zXjHpO-47">
          <mxGeometry relative="1" as="geometry" />
        </mxCell>
        <mxCell id="PDiiPKrnj8VNQ2zXjHpO-60" value="No" style="edgeStyle=orthogonalEdgeStyle;rounded=0;orthogonalLoop=1;jettySize=auto;html=1;" edge="1" parent="1" source="PDiiPKrnj8VNQ2zXjHpO-52" target="PDiiPKrnj8VNQ2zXjHpO-59">
          <mxGeometry relative="1" as="geometry" />
        </mxCell>
        <mxCell id="PDiiPKrnj8VNQ2zXjHpO-52" value="is * in query" style="rhombus;whiteSpace=wrap;html=1;strokeWidth=2;" vertex="1" parent="1">
          <mxGeometry x="385" y="-1000" width="80" height="80" as="geometry" />
        </mxCell>
        <mxCell id="PDiiPKrnj8VNQ2zXjHpO-56" style="edgeStyle=orthogonalEdgeStyle;rounded=0;orthogonalLoop=1;jettySize=auto;html=1;entryX=1;entryY=0.5;entryDx=0;entryDy=0;entryPerimeter=0;" edge="1" parent="1" source="PDiiPKrnj8VNQ2zXjHpO-47" target="PDiiPKrnj8VNQ2zXjHpO-4">
          <mxGeometry relative="1" as="geometry">
            <Array as="points">
              <mxPoint x="610" y="-1060" />
            </Array>
          </mxGeometry>
        </mxCell>
        <mxCell id="PDiiPKrnj8VNQ2zXjHpO-59" value="" style="rounded=1;whiteSpace=wrap;html=1;strokeWidth=2;" vertex="1" parent="1">
          <mxGeometry x="365" y="-830" width="120" height="60" as="geometry" />
        </mxCell>
      </root>
    </mxGraphModel>
  </diagram>
  <diagram id="ULSIS1ShNGg4ICSSYNWC" name="handle_or">
    <mxGraphModel dx="838" dy="1630" grid="1" gridSize="10" guides="1" tooltips="1" connect="1" arrows="1" fold="1" page="1" pageScale="1" pageWidth="850" pageHeight="1100" math="0" shadow="0">
      <root>
        <mxCell id="0" />
        <mxCell id="1" parent="0" />
        <mxCell id="JPo0LxB0wBdKMaRycMX4-1" value="" style="edgeStyle=orthogonalEdgeStyle;rounded=0;orthogonalLoop=1;jettySize=auto;html=1;" edge="1" parent="1" source="JPo0LxB0wBdKMaRycMX4-9" target="JPo0LxB0wBdKMaRycMX4-6">
          <mxGeometry relative="1" as="geometry" />
        </mxCell>
        <mxCell id="JPo0LxB0wBdKMaRycMX4-2" value="Start" style="strokeWidth=2;html=1;shape=mxgraph.flowchart.start_1;whiteSpace=wrap;" vertex="1" parent="1">
          <mxGeometry x="110" y="-1050" width="100" height="60" as="geometry" />
        </mxCell>
        <mxCell id="JPo0LxB0wBdKMaRycMX4-4" value="Yes" style="edgeStyle=orthogonalEdgeStyle;rounded=0;orthogonalLoop=1;jettySize=auto;html=1;" edge="1" parent="1" source="JPo0LxB0wBdKMaRycMX4-6" target="JPo0LxB0wBdKMaRycMX4-15">
          <mxGeometry relative="1" as="geometry">
            <mxPoint x="160" y="-680" as="targetPoint" />
          </mxGeometry>
        </mxCell>
        <mxCell id="JPo0LxB0wBdKMaRycMX4-13" value="No" style="edgeStyle=orthogonalEdgeStyle;rounded=0;orthogonalLoop=1;jettySize=auto;html=1;" edge="1" parent="1" source="JPo0LxB0wBdKMaRycMX4-6" target="JPo0LxB0wBdKMaRycMX4-12">
          <mxGeometry relative="1" as="geometry" />
        </mxCell>
        <mxCell id="JPo0LxB0wBdKMaRycMX4-6" value="is token the &quot;OR&quot;" style="rhombus;whiteSpace=wrap;html=1;strokeWidth=2;" vertex="1" parent="1">
          <mxGeometry x="120" y="-840" width="80" height="80" as="geometry" />
        </mxCell>
        <mxCell id="JPo0LxB0wBdKMaRycMX4-10" value="" style="edgeStyle=orthogonalEdgeStyle;rounded=0;orthogonalLoop=1;jettySize=auto;html=1;" edge="1" parent="1" source="JPo0LxB0wBdKMaRycMX4-2" target="JPo0LxB0wBdKMaRycMX4-9">
          <mxGeometry relative="1" as="geometry">
            <mxPoint x="160" y="-990" as="sourcePoint" />
            <mxPoint x="160" y="-840" as="targetPoint" />
          </mxGeometry>
        </mxCell>
        <mxCell id="JPo0LxB0wBdKMaRycMX4-9" value="Push to new query" style="rounded=1;whiteSpace=wrap;html=1;strokeWidth=2;" vertex="1" parent="1">
          <mxGeometry x="100" y="-950" width="120" height="60" as="geometry" />
        </mxCell>
        <mxCell id="JPo0LxB0wBdKMaRycMX4-27" value="" style="edgeStyle=orthogonalEdgeStyle;rounded=0;orthogonalLoop=1;jettySize=auto;html=1;" edge="1" parent="1" source="JPo0LxB0wBdKMaRycMX4-12" target="JPo0LxB0wBdKMaRycMX4-26">
          <mxGeometry relative="1" as="geometry" />
        </mxCell>
        <mxCell id="JPo0LxB0wBdKMaRycMX4-12" value="next token" style="rounded=1;whiteSpace=wrap;html=1;strokeWidth=2;" vertex="1" parent="1">
          <mxGeometry x="295" y="-830" width="120" height="60" as="geometry" />
        </mxCell>
        <mxCell id="JPo0LxB0wBdKMaRycMX4-18" value="" style="edgeStyle=orthogonalEdgeStyle;rounded=0;orthogonalLoop=1;jettySize=auto;html=1;" edge="1" parent="1" source="JPo0LxB0wBdKMaRycMX4-15" target="JPo0LxB0wBdKMaRycMX4-17">
          <mxGeometry relative="1" as="geometry" />
        </mxCell>
        <mxCell id="JPo0LxB0wBdKMaRycMX4-15" value="pop the new query" style="whiteSpace=wrap;html=1;rounded=1;" vertex="1" parent="1">
          <mxGeometry x="100" y="-540" width="120" height="60" as="geometry" />
        </mxCell>
        <mxCell id="JPo0LxB0wBdKMaRycMX4-20" value="" style="edgeStyle=orthogonalEdgeStyle;rounded=0;orthogonalLoop=1;jettySize=auto;html=1;" edge="1" parent="1" source="JPo0LxB0wBdKMaRycMX4-17" target="JPo0LxB0wBdKMaRycMX4-19">
          <mxGeometry relative="1" as="geometry" />
        </mxCell>
        <mxCell id="JPo0LxB0wBdKMaRycMX4-17" value="calculate OR" style="whiteSpace=wrap;html=1;rounded=1;" vertex="1" parent="1">
          <mxGeometry x="100" y="-420" width="120" height="60" as="geometry" />
        </mxCell>
        <mxCell id="JPo0LxB0wBdKMaRycMX4-22" value="" style="edgeStyle=orthogonalEdgeStyle;rounded=0;orthogonalLoop=1;jettySize=auto;html=1;" edge="1" parent="1" source="JPo0LxB0wBdKMaRycMX4-19" target="JPo0LxB0wBdKMaRycMX4-21">
          <mxGeometry relative="1" as="geometry" />
        </mxCell>
        <mxCell id="JPo0LxB0wBdKMaRycMX4-19" value="push the result to new query" style="whiteSpace=wrap;html=1;rounded=1;" vertex="1" parent="1">
          <mxGeometry x="100" y="-280" width="120" height="60" as="geometry" />
        </mxCell>
        <mxCell id="JPo0LxB0wBdKMaRycMX4-23" style="edgeStyle=orthogonalEdgeStyle;rounded=0;orthogonalLoop=1;jettySize=auto;html=1;" edge="1" parent="1" source="JPo0LxB0wBdKMaRycMX4-21" target="JPo0LxB0wBdKMaRycMX4-12">
          <mxGeometry relative="1" as="geometry" />
        </mxCell>
        <mxCell id="JPo0LxB0wBdKMaRycMX4-21" value="set jump flag" style="whiteSpace=wrap;html=1;rounded=1;" vertex="1" parent="1">
          <mxGeometry x="100" y="-140" width="120" height="60" as="geometry" />
        </mxCell>
        <mxCell id="JPo0LxB0wBdKMaRycMX4-28" value="No" style="edgeStyle=orthogonalEdgeStyle;rounded=0;orthogonalLoop=1;jettySize=auto;html=1;entryX=1;entryY=0.5;entryDx=0;entryDy=0;" edge="1" parent="1" source="JPo0LxB0wBdKMaRycMX4-26" target="JPo0LxB0wBdKMaRycMX4-9">
          <mxGeometry x="-0.7744" relative="1" as="geometry">
            <Array as="points">
              <mxPoint x="495" y="-920" />
            </Array>
            <mxPoint as="offset" />
          </mxGeometry>
        </mxCell>
        <mxCell id="JPo0LxB0wBdKMaRycMX4-37" value="Yes" style="edgeStyle=orthogonalEdgeStyle;rounded=0;orthogonalLoop=1;jettySize=auto;html=1;" edge="1" parent="1" source="JPo0LxB0wBdKMaRycMX4-26" target="JPo0LxB0wBdKMaRycMX4-32">
          <mxGeometry relative="1" as="geometry" />
        </mxCell>
        <mxCell id="JPo0LxB0wBdKMaRycMX4-26" value="jump flag" style="rhombus;whiteSpace=wrap;html=1;rounded=1;strokeWidth=2;" vertex="1" parent="1">
          <mxGeometry x="455" y="-840" width="80" height="80" as="geometry" />
        </mxCell>
        <mxCell id="JPo0LxB0wBdKMaRycMX4-40" style="edgeStyle=orthogonalEdgeStyle;rounded=0;orthogonalLoop=1;jettySize=auto;html=1;" edge="1" parent="1" source="JPo0LxB0wBdKMaRycMX4-32" target="JPo0LxB0wBdKMaRycMX4-12">
          <mxGeometry relative="1" as="geometry" />
        </mxCell>
        <mxCell id="JPo0LxB0wBdKMaRycMX4-32" value="reset flag" style="whiteSpace=wrap;html=1;rounded=1;strokeWidth=2;" vertex="1" parent="1">
          <mxGeometry x="435" y="-690" width="120" height="60" as="geometry" />
        </mxCell>
      </root>
    </mxGraphModel>
  </diagram>
</mxfile>
